<svg width="512" height="512" viewBox="0 0 512 512" fill="none" xmlns="http://www.w3.org/2000/svg">
<path d="M384 388.688L360 364.688L324.688 400L384 459.312L475.312 368L440 332.688L384 388.688ZM384 436.688L347.312 400L360 387.312L384 411.312L440 355.312L452.688 368L384 436.688Z" fill="#B49032"/>
<path d="M183.16 164.424L168.848 171.584L169.688 173.272C175.464 184.824 187.08 192 200 192C212.92 192 224.536 184.824 230.312 173.264L231.152 171.576L216.84 164.416L216 166.112C212.952 172.208 206.824 176 200 176C193.176 176 187.048 172.208 184 166.112L183.16 164.424Z" fill="#B49032"/>
<path d="M224 152C228.418 152 232 148.418 232 144C232 139.582 228.418 136 224 136C219.582 136 216 139.582 216 144C216 148.418 219.582 152 224 152Z" fill="#B49032"/>
<path d="M176 152C180.418 152 184 148.418 184 144C184 139.582 180.418 136 176 136C171.582 136 168 139.582 168 144C168 148.418 171.582 152 176 152Z" fill="#B49032"/>
<path d="M504 252.664V112C504 94.352 489.648 80 472 80C456.104 80 442.88 91.648 440.416 106.856C430.272 112.176 424 122.528 424 134.312C424 142.696 427.248 150.568 433.152 156.472L439.24 162.56L432.872 191.224C427.56 215.096 424.616 239.544 424.088 264.008H401.888C390.832 264.008 379.768 266.24 369.56 270.504C353.12 255.944 332.2 248 310.056 248H258.608C246.928 239.624 238.328 227.792 233.976 214.136C249.832 204.144 261 187.432 263.44 168H264C281.648 168 296 153.648 296 136C296 129.368 293.968 123.2 290.496 118.08L294.736 95.496C295.576 91.008 296 86.424 296 81.872C296 41.136 262.864 8 222.128 8H187.776C164.2 8 142.856 20.296 131.04 40.384C115.744 42.776 104 56.04 104 72C104 87.568 105.864 103.096 109.408 118.24C106 123.328 104 129.432 104 136C104 153.648 118.352 168 136 168H136.552C138.992 187.432 150.16 204.144 166.016 214.136C161.672 227.792 153.072 239.624 141.384 248H72.888C37.112 248 8 277.112 8 312.888C8 324.168 10.96 335.304 16.552 345.08L19.376 350.024C12.04 364.296 8 380.128 8 396.72C8 410.536 10.584 423.992 15.672 436.72L24.48 458.736C35.48 486.232 61.712 504 91.328 504H312V440.064L384 506.92L481.928 415.992C495.952 402.96 504 384.504 504 365.216C504 344.208 494.592 324.632 478.184 311.504C477.392 310.872 476.544 310.304 475.728 309.704C493.368 296.256 504 275.48 504 252.664ZM264 152V120C272.824 120 280 127.176 280 136C280 144.824 272.824 152 264 152ZM120 136C120 127.176 127.176 120 136 120H136.232C136.168 121.032 136 122.04 136 123.08V152C127.176 152 120 144.824 120 136ZM140.024 104H136C131.472 104 127.168 104.976 123.264 106.68C121.104 95.256 120 83.632 120 72C120 63.176 127.176 56 136 56H140.944L143.152 51.576C151.664 34.568 168.76 24 187.776 24H222.128C254.04 24 280 49.96 280 81.872C280 85.44 279.664 89.032 279.008 92.544L276.392 106.496C272.576 104.896 268.392 104 264 104H256H224C201.944 104 184 86.056 184 64H168C168 68.528 168.6 72.912 169.616 77.136L166.168 78.512C154.104 83.336 144.936 92.616 140.024 104ZM152 160V123.08C152 109.912 159.896 98.256 172.112 93.368L175.568 91.984C185.272 108.704 203.32 120 224 120H248V160C248 186.472 226.472 208 200 208C173.528 208 152 186.472 152 160ZM180.648 220.992C186.76 222.936 193.256 224 200 224C206.744 224 213.24 222.936 219.344 220.992C224.76 236.616 234.696 250.232 248 260.144V264C248 290.472 226.472 312 200 312C173.528 312 152 290.472 152 264V260.032C165.272 250.128 175.248 236.584 180.648 220.992ZM91.328 488C68.296 488 47.888 474.184 39.336 452.8L30.528 430.784C26.192 419.952 24 408.488 24 396.144C24 386.264 25.888 376.52 29.232 367.28L41.056 387.968L54.944 380.032L30.44 337.144C26.224 329.776 24 321.392 24 312.888C24 285.936 45.936 264 72.888 264H89.44L93.4 283.784C95.128 292.408 96 301.248 96 310.056C96 329.808 88.312 348.376 74.344 362.344L70.264 366.424L72.84 371.584C77.528 380.944 80 391.424 80 401.888V424.184C77.336 424.104 74.664 424 72 424H64V440H72C87.44 440 102.984 441.4 118.184 444.168L186.688 456.624L198.848 444.464C201.688 441.632 205.616 440 209.632 440C215.448 440 220.672 443.232 223.272 448.432L227.056 456H232C240.824 456 248 463.176 248 472C248 480.824 240.824 488 232 488H91.328ZM296 488H259.552C262.304 483.272 264 477.856 264 472C264 456.104 252.344 442.872 237.136 440.408C231.664 430.264 221.216 424 209.632 424C201.288 424 193.44 427.248 187.536 433.152L181.312 439.376L121.048 428.416C112.776 426.912 104.408 425.8 96.008 425.064V401.88C96.008 390.824 93.776 379.76 89.512 369.552C104.056 353.12 112 332.2 112 310.056C112 300.192 111.016 290.296 109.088 280.64L105.76 264H136C136 299.288 164.712 328 200 328C235.288 328 264 299.288 264 264H296V307.144C293.872 308.496 291.792 309.92 289.816 311.504C273.408 324.632 264 344.208 264 365.36C264 384.504 272.048 402.96 286.072 415.992L296 425.208V488ZM488 365.36C488 380.072 481.816 394.248 471.032 404.264L384 485.08L296.968 404.264C286.184 394.248 280 380.072 280 365.216C280 349.096 287.216 334.072 299.816 324C309.48 316.264 321.632 312 334.016 312C348.64 312 362.384 317.696 372.728 328.032L384.008 339.312L395.288 328.032C405.616 317.696 419.368 312 433.992 312C446.376 312 458.528 316.264 468.192 324C480.784 334.072 488 349.096 488 365.36ZM433.992 296C415.112 296 397.36 303.344 384 316.688C370.64 303.344 352.888 296 334.008 296C326.496 296 319.072 297.256 312 299.576V264.096C331.016 264.584 348.84 272.152 362.344 285.656L366.424 289.736L371.584 287.16C380.944 282.48 391.424 280 401.896 280H440V272C440 246.04 442.856 220.024 448.488 194.688L456.76 157.448L444.464 145.152C441.584 142.272 440 138.424 440 134.016C440 128.416 443.112 123.384 448.128 120.88L456 116.944V112C456 103.176 463.176 96 472 96C480.824 96 488 103.176 488 112V252.664C488 272.872 477.296 291.032 459.984 301.024C451.744 297.776 442.928 296 433.992 296Z" fill="#243B16"/>
</svg>
