<svg width="512" height="512" viewBox="0 0 512 512" fill="none" xmlns="http://www.w3.org/2000/svg">
<path d="M497.625 83.425C497.625 64.094 494.328 45.123 487.824 27.036C485.556 20.732 478.568 17.275 472.247 19.339C463.266 22.27 451.968 16.981 440.01 11.381C428.62 6.046 415.708 0 402.114 0C388.52 0 375.607 6.046 364.216 11.38C352.259 16.979 340.965 22.268 331.979 19.338C325.656 17.278 318.668 20.732 316.403 27.037C309.9 45.121 306.602 64.093 306.602 83.425C306.602 86.25 306.697 89.045 306.839 91.822C282.621 81.957 256.156 76.5 228.436 76.5C113.469 76.5 19.936 170.033 19.936 285C19.936 311.288 24.848 336.443 33.768 359.627L18.675 374.72C12.941 380.455 12.941 389.787 18.675 395.523L130.844 507.691C133.622 510.47 137.317 512 141.246 512C145.175 512 148.869 510.47 151.648 507.691L173.265 486.074C190.845 490.906 209.342 493.5 228.435 493.5C247.528 493.5 266.025 490.906 283.605 486.074L305.222 507.69C308 510.469 311.695 511.999 315.624 511.999C319.553 511.999 323.247 510.469 326.026 507.69L368.982 464.734C371.911 461.805 371.911 457.056 368.982 454.128C366.052 451.199 361.304 451.199 358.375 454.128L315.624 496.879L276.505 457.76L388.265 346.001L427.383 385.12L383.123 429.379C380.194 432.308 380.194 437.057 383.123 439.985C386.053 442.914 390.801 442.914 393.73 439.985L438.194 395.521C440.972 392.742 442.503 389.048 442.503 385.119C442.503 381.189 440.973 377.495 438.194 374.717L423.102 359.625C432.022 336.441 436.934 311.286 436.934 284.998C436.934 259.694 432.379 235.441 424.084 212.984C471.669 182.66 497.625 137.253 497.625 83.425ZM141.247 496.88L29.487 385.121L68.605 346.003L180.365 457.762L141.247 496.88ZM218.54 204.767H233.343L247.315 218.739C250.061 221.486 251.527 225.138 251.441 229.023C251.356 232.904 249.724 236.493 246.847 239.127C241.369 244.14 232.419 243.725 226.896 238.2L177.318 188.622C171.821 183.124 171.821 174.18 177.317 168.682C179.386 166.614 181.943 165.336 184.619 164.828C184.6 165.181 184.565 165.53 184.565 165.887V170.792C184.565 189.526 199.806 204.767 218.54 204.767ZM199.565 170.792V165.887C199.565 163.506 201.503 161.569 203.883 161.569H242.45C247.485 161.569 252.026 164.242 254.526 168.394L233.151 189.769H218.54C208.077 189.767 199.565 181.255 199.565 170.792ZM222.427 254.944C225.119 257.636 226.585 261.216 226.556 265.024C226.526 268.832 225.003 272.389 222.269 275.039C216.773 280.365 207.898 280.296 202.488 274.884L146.772 219.168H146.771C144.108 216.505 142.641 212.964 142.641 209.198C142.641 205.432 144.108 201.891 146.772 199.228C149.434 196.565 152.975 195.099 156.742 195.099C160.508 195.099 164.049 196.565 166.711 199.228L222.427 254.944ZM181.908 275.518C184.601 278.211 186.067 281.791 186.037 285.599C186.008 289.407 184.485 292.963 181.75 295.614C176.254 300.941 167.38 300.87 161.969 295.459L125.574 259.064L116.225 249.715C113.562 247.052 112.096 243.511 112.096 239.745C112.096 235.979 113.562 232.438 116.225 229.775C118.974 227.026 122.585 225.652 126.196 225.652C129.805 225.652 133.415 227.025 136.163 229.772L136.166 229.775L181.908 275.518ZM114.957 269.66L139.332 294.035C142.021 296.727 143.486 300.305 143.456 304.109C143.426 307.917 141.903 311.474 139.169 314.124C133.672 319.45 124.799 319.381 119.388 313.969L95.027 289.608C89.53 284.11 89.53 275.166 95.026 269.668C97.775 266.919 101.386 265.545 104.997 265.545C108.603 265.547 112.209 266.918 114.957 269.66ZM129.362 333.048C136.677 333.048 143.997 330.335 149.609 324.896C153.636 320.993 156.381 316.135 157.651 310.818C162.063 313.29 167.001 314.536 171.943 314.536C179.258 314.536 186.577 311.823 192.189 306.384C196.447 302.258 199.279 297.066 200.44 291.391C204.244 293.101 208.351 293.962 212.461 293.962C219.776 293.962 227.096 291.249 232.708 285.81C238.352 280.34 241.494 273 241.555 265.141C241.575 262.539 241.25 259.99 240.613 257.541C246.541 256.919 252.287 254.483 256.975 250.191C262.9 244.767 266.26 237.367 266.437 229.355C266.613 221.339 263.588 213.802 257.92 208.134L246.959 197.173L270.9 173.232C276.4 167.736 285.344 167.735 290.84 173.232C296.331 178.723 296.337 187.654 290.86 193.153C290.854 193.159 290.848 193.165 290.841 193.172C287.912 196.101 287.912 200.85 290.842 203.778C293.77 206.707 298.519 206.706 301.448 203.778C306.944 198.281 315.89 198.281 321.386 203.778C326.877 209.269 326.883 218.2 321.405 223.699C321.399 223.705 321.393 223.711 321.387 223.718H321.386C318.457 226.647 318.457 231.396 321.386 234.324C324.315 237.253 329.064 237.253 331.992 234.324C334.656 231.66 338.196 230.194 341.963 230.194C345.729 230.194 349.27 231.66 351.932 234.323C357.43 239.821 357.43 248.766 351.932 254.263C349.003 257.192 349.003 261.941 351.932 264.869C354.861 267.798 359.61 267.798 362.538 264.869C365.266 262.142 368.864 260.672 372.747 260.742C376.6 260.806 380.177 262.397 382.818 265.221C387.948 270.704 387.616 279.671 382.078 285.209L328.266 339.021C325.337 341.95 325.337 346.699 328.266 349.627C331.196 352.556 335.944 352.556 338.873 349.627L352 336.505L364.275 348.78L284.682 428.373L241.638 385.329C247.76 383.185 254.278 382.156 260.857 382.401L275.13 382.928C287.703 383.401 300.11 380.336 311.046 374.087C314.643 372.032 315.893 367.45 313.837 363.854C311.782 360.257 307.199 359.008 303.605 361.062C295.101 365.921 285.436 368.301 275.685 367.937L261.412 367.41C242.755 366.71 224.479 373.896 211.277 387.098L171.097 427.278L93.974 350.156L114.898 329.232C119.353 331.771 124.355 333.048 129.362 333.048ZM228.436 478.5C213.732 478.5 199.418 476.819 185.646 473.694L191.177 468.163C193.955 465.385 195.486 461.69 195.486 457.761C195.486 453.831 193.956 450.137 191.177 447.359L181.704 437.886L221.885 397.705C223.721 395.868 225.689 394.189 227.758 392.66L274.076 438.978L265.695 447.359C259.962 453.094 259.962 462.426 265.696 468.162L271.227 473.693C257.454 476.819 243.14 478.5 228.436 478.5ZM421.936 285C421.936 307.026 418.23 328.201 411.419 347.943L398.668 335.192C395.89 332.413 392.195 330.883 388.266 330.883C384.337 330.883 380.642 332.413 377.864 335.192L374.882 338.174L362.607 325.899L392.689 295.817C403.882 284.623 404.371 266.301 393.777 254.976C388.334 249.156 380.955 245.878 373.001 245.745C372.337 245.733 371.674 245.745 371.015 245.778C371.416 237.84 368.592 229.767 362.543 223.717C357.047 218.221 349.739 215.194 341.967 215.194C341.465 215.194 340.965 215.207 340.468 215.232C340.869 207.294 338.046 199.22 331.996 193.171C325.942 187.117 317.87 184.298 309.921 184.7C310.327 176.757 307.503 168.678 301.449 162.625C291.791 152.967 276.98 151.536 265.787 158.322C260.417 151.106 251.861 146.569 242.452 146.569H203.885C199.746 146.569 195.916 147.889 192.768 150.114C183.615 148.368 173.785 151.004 166.712 158.075C160.662 164.125 157.841 172.198 158.243 180.137C157.745 180.112 157.245 180.098 156.743 180.098C148.97 180.098 141.662 183.125 136.167 188.621C130.67 194.117 127.643 201.425 127.643 209.198C127.643 209.7 127.657 210.2 127.682 210.698C119.744 210.296 111.671 213.118 105.621 219.168C100.124 224.664 97.098 231.972 97.098 239.745C97.098 243.71 97.89 247.552 99.391 251.096C93.903 252.166 88.665 254.821 84.422 259.063C73.077 270.409 73.077 288.87 84.422 300.216L103.564 319.358L83.37 339.552L79.01 335.192C76.232 332.413 72.537 330.883 68.608 330.883C64.679 330.883 60.985 332.413 58.207 335.192L45.456 347.943C38.646 328.201 34.94 307.026 34.94 285C34.94 178.304 121.744 91.5 228.44 91.5C257.043 91.5 284.205 97.759 308.659 108.948C316.525 157.126 346.974 196.807 396.391 222.327C398.184 223.253 400.151 223.717 402.118 223.717C404.084 223.717 406.051 223.254 407.842 222.328C408.887 221.788 409.905 221.229 410.932 220.677C418.047 240.811 421.936 262.458 421.936 285ZM402.114 208.396C377.294 195.377 357.766 178.592 344.058 158.49C329.157 136.636 321.601 111.381 321.601 83.425C321.601 66.602 324.342 50.084 329.754 34.287C343.558 37.617 357.282 31.191 370.576 24.965C381.039 20.066 391.857 15 402.114 15C412.37 15 423.188 20.066 433.65 24.965C446.945 31.192 460.67 37.618 474.473 34.287C479.884 50.083 482.625 66.603 482.625 83.425C482.625 111.381 475.069 136.636 460.168 158.49C446.461 178.591 426.933 195.377 402.114 208.396Z" fill="white"/>
<path d="M453.87 93.158C457.823 91.921 460.024 87.713 458.787 83.76C450.995 58.864 428.22 42.137 402.114 42.137C369.373 42.137 342.735 68.774 342.735 101.515C342.735 134.256 369.373 160.893 402.114 160.893C426.407 160.893 448.008 146.341 457.144 123.819C458.701 119.981 456.852 115.607 453.013 114.05C449.173 112.491 444.8 114.342 443.243 118.18C436.414 135.014 420.269 145.892 402.113 145.892C377.642 145.892 357.734 125.984 357.734 101.514C357.734 77.044 377.642 57.136 402.113 57.136C421.626 57.136 438.648 69.636 444.471 88.24C445.709 92.194 449.921 94.395 453.87 93.158Z" fill="#FDCB6E"/>
<path d="M421.766 83.278L398.606 106.439L382.46 90.293C379.53 87.364 374.782 87.364 371.853 90.293C368.924 93.222 368.924 97.9711 371.853 100.899L393.302 122.348C394.767 123.812 396.687 124.545 398.606 124.545C400.525 124.545 402.445 123.813 403.91 122.348L432.374 93.8841C435.303 90.9551 435.303 86.206 432.374 83.278C429.444 80.349 424.696 80.349 421.766 83.278Z" fill="#FDCB6E"/>
</svg>
