<svg width="512" height="512" viewBox="0 0 512 512" fill="none" xmlns="http://www.w3.org/2000/svg">
<g clip-path="url(#clip0)">
<path d="M303.028 61.578C297.65 60.283 292.257 63.588 290.963 68.956C289.669 74.3249 292.972 79.7269 298.341 81.0209C379.393 100.56 435.999 172.514 435.999 255.999C435.999 355.251 355.253 435.999 256 435.999C156.748 435.999 76.0009 355.251 76.0009 255.999C76.0009 172.517 132.605 100.563 213.652 81.0219C219.021 79.7269 222.324 74.3249 221.03 68.957C219.735 63.588 214.331 60.287 208.965 61.579C166.086 71.918 127.237 96.7049 99.5758 131.374C71.0689 167.103 56.001 210.197 56.001 255.999C56.001 366.279 145.721 455.998 256 455.998C366.28 455.998 455.999 366.28 455.999 255.999C455.999 210.196 440.931 167.101 412.423 131.371C384.761 96.7029 345.91 71.916 303.028 61.578V61.578Z" fill="#7B88FF"/>
<path d="M505.974 231.947L494.275 210.12L496.226 183.136C498.102 165.84 491.203 148.96 477.747 137.952L458.327 122.051L450.688 99.0386C446.41 81.4437 433.047 67.3017 415.709 62.0648L391.738 54.8228L373.381 33.6029C362.519 20.8259 346.078 14.1799 329.399 15.8189L304.519 18.2979L280.062 6.02898C264.99 -2.00599 247.02 -2.01299 231.946 6.02798L210.12 17.7259L183.137 15.7739C165.834 13.8979 148.96 20.7979 137.953 34.2529L122.051 53.6728L99.0396 61.3118C81.4437 65.5897 67.3017 78.9527 62.0648 96.2896L54.8238 120.261L33.6039 138.619C20.8279 149.481 14.178 165.919 15.819 182.601L18.2979 207.481L6.02899 231.938C-2.00698 247.011 -2.01298 264.98 6.02699 280.055L17.7259 301.881L15.774 328.865C13.899 346.161 20.7979 363.04 34.2529 374.049L53.6728 389.95L61.3118 412.962C65.5888 430.557 78.9517 444.699 96.2906 449.936L120.261 457.177L138.619 478.398C149.482 491.174 165.916 497.824 182.601 496.182L207.48 493.703L231.935 505.97C239.474 509.99 247.738 512.001 256.002 512.001C264.26 512.001 272.518 509.993 280.053 505.974L301.88 494.276L328.863 496.228C346.158 498.1 363.038 491.204 374.048 477.749L389.949 458.329L412.962 450.691C430.556 446.413 444.697 433.05 449.934 415.712L457.176 391.742L478.397 373.384C491.173 362.522 497.823 346.084 496.182 329.401L493.702 304.523L505.97 280.066C514.006 264.992 514.014 247.022 505.974 231.947V231.947ZM488.279 270.733C488.235 270.815 488.192 270.897 488.151 270.979L474.525 298.144C473.676 299.836 473.325 301.735 473.512 303.62L476.279 331.37C477.277 341.517 473.226 351.527 465.377 358.201L441.899 378.513C440.467 379.752 439.417 381.37 438.87 383.182L430.789 409.927C427.568 420.591 418.817 428.79 407.952 431.323C407.655 431.392 407.361 431.475 407.072 431.571L380.898 440.258C379.102 440.855 377.511 441.949 376.312 443.414L358.572 465.08C351.834 473.316 341.483 477.522 330.891 476.33C330.759 476.315 330.626 476.303 330.495 476.293L300.433 474.119C298.54 473.983 296.656 474.385 294.988 475.279L270.624 488.337C261.436 493.237 250.462 493.217 241.267 488.28C241.185 488.237 241.103 488.194 241.021 488.153L213.857 474.527C212.461 473.827 210.925 473.465 209.373 473.465C209.043 473.465 208.712 473.481 208.381 473.514L180.631 476.279C170.485 477.281 160.474 473.226 153.8 465.378L133.488 441.9C132.25 440.468 130.63 439.417 128.818 438.87L102.073 430.791C91.4077 427.57 83.2097 418.819 80.6767 407.953C80.6077 407.656 80.5247 407.363 80.4287 407.073L71.7417 380.898C71.1457 379.102 70.0517 377.512 68.5867 376.313L46.9218 358.572C38.6859 351.834 34.4799 341.486 35.6719 330.892C35.6869 330.76 35.6989 330.628 35.7089 330.495L37.8829 300.432C38.0199 298.544 37.6169 296.656 36.7229 294.987L23.6639 270.625C18.7639 261.437 18.7849 250.463 23.7199 241.268C23.7639 241.187 23.8059 241.105 23.8469 241.023L37.4729 213.858C38.3219 212.166 38.6729 210.267 38.4849 208.383L35.7199 180.631C34.7219 170.484 38.7729 160.474 46.6218 153.8L70.0997 133.488C71.5317 132.249 72.5817 130.63 73.1297 128.818L81.2097 102.073C84.4307 91.4086 93.1816 83.2107 104.048 80.6767C104.345 80.6077 104.638 80.5247 104.928 80.4287L131.1 71.7407C132.897 71.1447 134.487 70.0507 135.686 68.5857L153.428 46.9198C160.166 38.6848 170.517 34.4809 181.108 35.6709C181.24 35.6859 181.372 35.6979 181.504 35.7079L211.566 37.8819C213.449 38.0159 215.342 37.6159 217.011 36.7219L241.374 23.6639C250.561 18.7639 261.536 18.7839 270.73 23.7199C270.811 23.7629 270.893 23.8059 270.976 23.8469L298.141 37.4729C299.833 38.3218 301.732 38.6738 303.616 38.4848L331.367 35.7199C341.513 34.7199 351.524 38.7728 358.198 46.6218L378.509 70.0997C379.747 71.5317 381.368 72.5817 383.18 73.1297L409.925 81.2097C420.589 84.4307 428.787 93.1826 431.321 104.048C431.39 104.345 431.473 104.638 431.569 104.928L440.257 131.1C440.854 132.897 441.947 134.487 443.412 135.686L465.078 153.427C473.314 160.165 477.519 170.512 476.327 181.107C476.312 181.239 476.3 181.371 476.291 181.504L474.117 211.567C473.98 213.455 474.383 215.343 475.276 217.012L488.335 241.375C493.236 250.565 493.215 261.539 488.279 270.733V270.733Z" fill="#7B88FF"/>
<path d="M212.602 201.516C210.998 198.136 207.563 195.793 203.573 195.793H150.736C145.213 195.793 140.736 200.27 140.736 205.793V357.158C140.736 362.681 145.213 367.158 150.736 367.158H203.573C207.718 367.158 211.273 364.637 212.789 361.044C220.412 362.114 228.265 364.282 236.441 366.546C248.733 369.949 261.442 373.468 274.647 373.468H332.375C350.221 373.468 364.682 364.007 371.059 348.158C374.165 340.436 374.709 332.422 372.894 325.713C376.214 322.728 379.02 319.012 381.142 314.673C385.443 305.881 386.302 295.994 383.864 287.667C388.408 283.277 391.798 277.48 393.57 270.645C395.227 264.255 395.198 257.95 393.724 252.487C402.744 247.181 408.819 237.541 408.819 226.679C408.819 218.161 405.502 210.311 399.478 204.577C393.694 199.071 385.99 196.038 377.786 196.038L296.415 196.04C290.233 188.285 288.309 177.761 291.829 169.29C299.053 151.904 298.605 137.187 290.381 121.573C284.275 109.984 267.857 98.446 254.058 100.416C245.717 101.608 239.682 107.503 237.912 116.187C237.391 118.742 237.248 121.502 237.083 124.698C236.675 132.582 236.115 143.38 229.309 156.419C224.696 165.258 223.157 174.349 221.799 182.37C219.854 193.86 218.911 199.395 212.602 201.516V201.516ZM160.736 215.793H193.573V347.158H160.736V215.793ZM241.519 185.708C242.684 178.827 243.888 171.711 247.04 165.674C255.863 148.77 256.61 134.349 257.057 125.733C257.176 123.438 257.288 121.27 257.51 120.18C257.511 120.173 257.513 120.165 257.515 120.158C260.984 120.206 269.521 124.889 272.686 130.897C278.164 141.293 278.346 149.62 273.362 161.618C268.867 172.436 269.205 184.989 273.651 196.15C268.786 196.827 265.038 200.992 265.038 206.043C265.038 211.565 269.516 216.043 275.038 216.043L377.786 216.04C380.833 216.04 383.64 217.114 385.688 219.064C387.117 220.423 388.819 222.849 388.819 226.681C388.819 232.044 383.902 236.682 378.081 236.809L352.342 237.369C346.821 237.489 342.442 242.062 342.562 247.584C342.681 253.032 347.133 257.367 352.556 257.367C352.629 257.367 352.703 257.367 352.778 257.365L374.214 256.899C374.913 258.88 375.277 262.659 373.805 266.988C372.552 270.67 369.189 276.846 360.729 276.846C355.207 276.846 350.729 281.323 350.729 286.846C350.729 292.369 355.207 296.846 360.729 296.846C362.245 296.846 363.733 296.752 365.189 296.567C365.313 299.397 364.731 302.712 363.178 305.886C361.342 309.638 357.713 314.112 350.851 314.112C345.329 314.112 340.851 318.589 340.851 324.112C340.851 329.635 345.329 334.112 350.851 334.112C351.886 334.112 352.91 334.066 353.921 333.975C353.895 335.894 353.505 338.293 352.414 340.917C350.846 344.691 345.753 353.468 332.377 353.468H274.649C264.162 353.468 253.29 350.458 241.78 347.271C232.621 344.735 223.23 342.137 213.575 340.977V221.755C236.089 217.675 239.193 199.449 241.519 185.708V185.708Z" fill="#FDCB6E"/>
<path d="M256.002 76.001C261.525 76.001 266.002 71.524 266.002 66.001C266.002 60.478 261.525 56.001 256.002 56.001H255.995C250.472 56.001 245.999 60.478 245.999 66.001C245.999 71.524 250.479 76.001 256.002 76.001Z" fill="#7B88FF"/>
</g>
<defs>
<clipPath id="clip0">
<rect width="512" height="512" fill="white"/>
</clipPath>
</defs>
</svg>
